
        <svg xmlns="http://www.w3.org/2000/svg" xmlns:xlink="http://www.w3.org/1999/xlink" version="1.1" width="3187.5"
        height="1442.2029857737625" viewBox="0 0 3187.5 1442.2029857737625">

			<g transform="scale(9.375) translate(10, 10)">
				<defs id="SvgjsDefs3972"></defs><g id="SvgjsG3973" featureKey="monogramFeature-0" transform="matrix(3.052293510790742,0,0,3.052293510790742,0.006874076009495102,-49.381691199098505)" fill="#fb923c"><path d="M0.66 16.560000000000002 l0 0 c0.12 -0.06 30.78 -0.48 30.9 -0.36 c0.66 0.66 1.08 6.36 1.2 13.38 c-9.96 -1.02 -14.22 -8.58 -14.22 -8.64 c-1.02 -1.8 -3.78 -1.08 -3.78 1.02 l0 0 l0 32.28 c0 2.04 2.7 2.88 3.84 0.9 c0.54 -0.9 4.86 -7.56 14.1 -8.52 c-0.18 6.72 -0.54 12 -0.96 12.48 c-1.32 1.08 -30.42 1.38 -31.2 0 c-1.2 -2.22 -0.06 -42.48 0.12 -42.54 z"></path></g><g id="SvgjsG3974" featureKey="nameFeature-0" transform="matrix(1.6448196282076677,0,0,1.6448196282076677,117.69725001071369,24.72271979268085)" fill="#111111"><path d="M12.24 18.84 c3.8 0 7 1.64 8.96 5 l-4.4 2.04 c-1.12 -1.12 -2.2 -1.96 -4.48 -1.96 c-2.6 0 -5.36 1.96 -5.36 5.72 c0 3.72 2.76 5.64 5.36 5.64 c2.28 0 3.36 -0.8 4.48 -1.92 l4.44 2.04 c-2 3.36 -5.12 4.92 -9 4.92 c-4.64 0 -10.84 -3.36 -10.84 -10.68 c0 -7.24 6.2 -10.8 10.84 -10.8 z M37.44 18.88 c0.52 0 1 0 1.52 0.12 l0 5.48 c-0.48 -0.12 -0.96 -0.12 -1.36 -0.12 c-3.84 0 -7 2.76 -7.36 6.76 l0 8.88 l-5.72 0 l0 -20.8 l5.72 0 l0 5.2 c0.92 -3.16 3.44 -5.52 7.2 -5.52 z M57.599999999999994 19.2 l5.72 0 l0 20.8 l-5.72 0 l0 -2.56 c-0.12 0.84 -2.16 2.96 -5.76 2.96 c-4.76 0 -10.28 -3.44 -10.28 -10.84 c0 -7.16 5.52 -10.72 10.28 -10.72 c3.6 0 5.64 2.24 5.76 2.68 l0 -2.32 z M52.64 35.32 c2.8 0 5.24 -1.92 5.24 -5.76 c0 -3.72 -2.44 -5.64 -5.24 -5.64 c-2.88 0 -5.52 1.96 -5.52 5.64 c0 3.8 2.64 5.76 5.52 5.76 z M82.84 11.719999999999999 l5.72 0 l0 10.6 l0 17.68 l-5.72 0 l0 -2.56 c-0.12 0.84 -2.16 2.96 -5.76 2.96 c-4.76 0 -10.28 -3.44 -10.28 -10.84 c0 -7.16 5.52 -10.72 10.28 -10.72 c3.6 0 5.64 2.24 5.76 2.68 l0 -9.8 z M77.88000000000001 35.32 c2.8 0 5.24 -1.92 5.24 -5.76 c0 -3.72 -2.44 -5.64 -5.24 -5.64 c-2.88 0 -5.52 1.96 -5.52 5.64 c0 3.8 2.64 5.76 5.52 5.76 z M98.44000000000001 11.719999999999999 l0 28.28 l-5.72 0 l0 -28.28 l5.72 0 z M112.84 18.84 c4.72 0 11.24 3.56 10 12.76 l-15.12 0 c0.72 2.6 2.88 3.96 5.68 3.96 c2.6 0 3.6 -0.6 5.08 -1.4 l3.16 3.08 c-1.8 1.88 -4.36 3.16 -8.44 3.16 c-5.2 0 -11.28 -3.56 -11.28 -10.72 c0 -7.28 6.2 -10.84 10.92 -10.84 z M112.84 23.72 c-2.08 0 -4.28 1.28 -5.04 3.84 l10 0 c-0.64 -2.56 -2.92 -3.84 -4.96 -3.84 z"></path></g>
			</g>
		</svg>
